<svg width="35" height="35" viewBox="0 0 35 35" fill="none" xmlns="http://www.w3.org/2000/svg">
<path d="M33.5413 13.125H32.083V18.9583H33.5413V13.125Z" fill="black"/>
<path d="M32.0833 18.9585H30.625V20.4168H32.0833V18.9585Z" fill="black"/>
<path d="M32.0833 13.125H30.625V18.9583H32.0833V13.125Z" fill="#EF9520"/>
<path d="M32.0833 11.6665H30.625V13.1248H32.0833V11.6665Z" fill="black"/>
<path d="M30.6253 20.4165H29.167V29.1665H30.6253V20.4165Z" fill="black"/>
<path d="M32.0833 29.1665H30.625V32.0832H32.0833V29.1665Z" fill="black"/>
<path d="M30.625 32.0835H4.375V33.5418H30.625V32.0835Z" fill="black"/>
<path d="M4.37533 29.1665H2.91699V32.0832H4.37533V29.1665Z" fill="black"/>
<path d="M5.83333 20.4165H4.375V29.1665H5.83333V20.4165Z" fill="black"/>
<path d="M10.2083 5.8335H8.75V7.29183H10.2083V5.8335Z" fill="black"/>
<path d="M4.37533 11.6665H2.91699V13.1248H4.37533V11.6665Z" fill="black"/>
<path d="M11.6663 4.375H10.208V5.83333H11.6663V4.375Z" fill="black"/>
<path d="M14.5837 2.9165H11.667V4.37484H14.5837V2.9165Z" fill="black"/>
<path d="M2.91634 13.125H1.45801V18.9583H2.91634V13.125Z" fill="black"/>
<path d="M8.74967 7.2915H5.83301V8.74984H8.74967V7.2915Z" fill="black"/>
<path d="M5.83333 8.75H4.375V11.6667H5.83333V8.75Z" fill="black"/>
<path d="M20.4163 1.4585H14.583V2.91683H20.4163V1.4585Z" fill="black"/>
<path d="M4.37533 18.9585H2.91699V20.4168H4.37533V18.9585Z" fill="black"/>
<path d="M23.3337 2.9165H20.417V4.37484H23.3337V2.9165Z" fill="black"/>
<path d="M30.6253 18.9585H29.167V20.4168H30.6253V18.9585Z" fill="#EF9520"/>
<path d="M30.6253 13.125H29.167V18.9583H30.6253V13.125Z" fill="#FFD100"/>
<path d="M30.6253 11.6665H29.167V13.1248H30.6253V11.6665Z" fill="#EF9520"/>
<path d="M30.6253 8.75H29.167V11.6667H30.6253V8.75Z" fill="black"/>
<path d="M30.6247 29.1665V32.0832H18.958V30.6248H20.4163V29.1665H27.708V20.4165H29.1663V29.1665H30.6247Z" fill="#2B6DA3"/>
<path d="M29.1667 7.2915H26.25V8.74984H29.1667V7.2915Z" fill="black"/>
<path d="M26.2503 5.8335H24.792V7.29183H26.2503V5.8335Z" fill="black"/>
<path d="M24.7913 5.8335H23.333V7.29183H24.7913V5.8335Z" fill="#EF9520"/>
<path d="M24.7913 4.375H23.333V5.83333H24.7913V4.375Z" fill="black"/>
<path d="M23.3337 5.83333V7.29167H11.667V5.83333H14.5837V4.375H20.417V5.83333H23.3337Z" fill="#FFD100"/>
<path d="M23.3337 4.375H20.417V5.83333H23.3337V4.375Z" fill="#EF9520"/>
<path d="M20.4163 14.5835H18.958V17.5002H20.4163V14.5835Z" fill="white"/>
<path d="M20.4163 2.9165H14.583V4.37484H20.4163V2.9165Z" fill="#EF9520"/>
<path d="M16.0417 30.6248V32.0832H4.375V29.1665H5.83333V20.4165H7.29167V29.1665H14.5833V30.6248H16.0417Z" fill="#2B6DA3"/>
<path d="M14.583 13.125H10.208V14.5833H14.583V13.125Z" fill="white"/>
<path d="M14.5837 4.375H11.667V5.83333H14.5837V4.375Z" fill="#EF9520"/>
<path d="M11.6663 5.8335H10.208V7.29183H11.6663V5.8335Z" fill="#EF9520"/>
<path d="M27.708 11.6668V10.2085H7.29134V11.6668H5.83301V20.4168H7.29134V29.1668H14.583V30.6252H16.0413V32.0835H18.958V30.6252H20.4163V29.1668H27.708V20.4168H29.1663V11.6668H27.708ZM8.74967 14.5835H10.208V13.1252H14.583V14.5835H16.0413V17.5002H14.583V18.9585H10.208V17.5002H8.74967V14.5835ZM26.2497 26.2502H8.74967V23.3335H26.2497V26.2502ZM26.2497 17.5002H24.7913V18.9585H20.4163V17.5002H18.958V14.5835H20.4163V13.1252H24.7913V14.5835H26.2497V17.5002Z" fill="#7DC2F9"/>
<path d="M24.792 17.5H20.417V18.9583H24.792V17.5Z" fill="white"/>
<path d="M26.2503 14.5835H24.792V17.5002H26.2503V14.5835Z" fill="white"/>
<path d="M24.792 13.125H20.417V14.5833H24.792V13.125Z" fill="white"/>
<path d="M10.2083 14.5835H8.75V17.5002H10.2083V14.5835Z" fill="white"/>
<path d="M16.0413 14.5835H14.583V17.5002H16.0413V14.5835Z" fill="white"/>
<path d="M14.583 17.5H10.208V18.9583H14.583V17.5Z" fill="white"/>
<path d="M11.6663 23.3335H10.208V26.2502H11.6663V23.3335Z" fill="white"/>
<path d="M16.0413 23.3335H14.583V26.2502H16.0413V23.3335Z" fill="white"/>
<path d="M24.7913 23.3335H23.333V26.2502H24.7913V23.3335Z" fill="white"/>
<path d="M20.4163 23.3335H18.958V26.2502H20.4163V23.3335Z" fill="white"/>
<path d="M14.583 14.5835H10.208V17.5002H14.583V14.5835Z" fill="#D22B45"/>
<path d="M24.792 14.5835H20.417V17.5002H24.792V14.5835Z" fill="#D22B45"/>
<path d="M26.2503 23.3335H24.792V26.2502H26.2503V23.3335Z" fill="#D0EDF4"/>
<path d="M23.3337 23.3335H20.417V26.2502H23.3337V23.3335Z" fill="#D0EDF4"/>
<path d="M10.2083 23.3335H8.75V26.2502H10.2083V23.3335Z" fill="#D0EDF4"/>
<path d="M14.5837 23.3335H11.667V26.2502H14.5837V23.3335Z" fill="#D0EDF4"/>
<path d="M18.9587 23.3335H16.042V26.2502H18.9587V23.3335Z" fill="#D0EDF4"/>
<path d="M29.1663 8.74984V11.6665H27.708V10.2082H7.29134V11.6665H5.83301V8.74984H8.74967V7.2915H26.2497V8.74984H29.1663Z" fill="#2B6DA3"/>
<path d="M5.83333 18.9585H4.375V20.4168H5.83333V18.9585Z" fill="#EF9520"/>
<path d="M5.83333 13.125H4.375V18.9583H5.83333V13.125Z" fill="#FFD100"/>
<path d="M5.83333 11.6665H4.375V13.1248H5.83333V11.6665Z" fill="#EF9520"/>
<path d="M4.37533 13.125H2.91699V18.9583H4.37533V13.125Z" fill="#EF9520"/>
<path d="M29 15.125H27.25V16H29V15.125Z" fill="#F7FEFF"/>
<path d="M30.75 14.25H29V15.125H30.75V14.25Z" fill="#F7FEFF"/>
<path d="M29 14.25H27.25V15.125H29V14.25Z" fill="#231E2B"/>
<path d="M27.25 14.25H26.375V15.125H27.25V14.25Z" fill="#F7FEFF"/>
<path d="M31.625 13.375H30.75V14.25H31.625V13.375Z" fill="#F7FEFF"/>
<path d="M30.75 13.375H29V14.25H30.75V13.375Z" fill="#231E2B"/>
<path d="M29 13.375H28.125V14.25H29V13.375Z" fill="#CF8934"/>
<path d="M27.25 8.125H24.625V8.99999H26.375V14.25H27.25V8.125Z" fill="#231E2B"/>
<path d="M32.5 12.5H31.625V13.375H32.5V12.5Z" fill="#F7FEFF"/>
<path d="M31.625 12.5H30.75V13.375H31.625V12.5Z" fill="#231E2B"/>
<path d="M30.75 12.5H29.875V13.375H30.75V12.5Z" fill="#F5F38E"/>
<path d="M26.375 9H24.625V9.87499H25.5V14.25H26.375V9Z" fill="#F7FEFF"/>
<path d="M31.625 11.625H30.75V12.5H31.625V11.625Z" fill="#F7FEFF"/>
<path d="M30.75 11.625H29.875V12.5H30.75V11.625Z" fill="#231E2B"/>
<path d="M29.875 11.625H29V12.5H29.875V11.625Z" fill="#CF8934"/>
<path d="M32.5 10.75H31.625V11.625H32.5V10.75Z" fill="#F7FEFF"/>
<path d="M31.625 10.75H30.75V11.625H31.625V10.75Z" fill="#231E2B"/>
<path d="M30.75 10.75H29V11.625H30.75V10.75Z" fill="#F5F38E"/>
<path d="M29.875 9V9.87499H30.75V10.75H31.625V9H29.875Z" fill="#F7FEFF"/>
<path d="M29 9H28.125V10.75H29V9Z" fill="#F5F38E"/>
<path d="M32.5 8.125H31.625V8.99999H32.5V8.125Z" fill="#F7FEFF"/>
<path d="M29 8.125V10.75H30.75V9.87499H29.875V8.99999H31.625V8.125H29Z" fill="#231E2B"/>
<path d="M24.625 8.125H23.75V8.99999H24.625V8.125Z" fill="#F7FEFF"/>
<path d="M33.375 7.25H32.5V8.12499H33.375V7.25Z" fill="#F7FEFF"/>
<path d="M32.5 7.25H31.625V8.12499H32.5V7.25Z" fill="#231E2B"/>
<path d="M31.625 7.25H29V8.12499H31.625V7.25Z" fill="#CF8934"/>
<path d="M27.25 7.25H24.625V8.12499H27.25V7.25Z" fill="#CF8934"/>
<path d="M24.625 7.25H23.75V8.12499H24.625V7.25Z" fill="#231E2B"/>
<path d="M23.75 7.25H22.875V8.12499H23.75V7.25Z" fill="#F7FEFF"/>
<path d="M32.5 6.375H31.625V7.24999H32.5V6.375Z" fill="#CF8934"/>
<path d="M28.125 6.375H25.5V7.24999H28.125V6.375Z" fill="#F5F38E"/>
<path d="M24.625 6.375H23.75V7.24999H24.625V6.375Z" fill="#CF8934"/>
<path d="M23.75 4.625H22.875V7.24998H23.75V4.625Z" fill="#231E2B"/>
<path d="M34.25 4.625H33.375V7.24998H34.25V4.625Z" fill="#F7FEFF"/>
<path d="M30.75 5.5H25.5V6.37499H30.75V5.5Z" fill="#231E2B"/>
<path d="M22.875 4.625H22V7.24998H22.875V4.625Z" fill="#F7FEFF"/>
<path d="M33.375 4.625H32.5V7.24998H33.375V4.625Z" fill="#231E2B"/>
<path d="M32.5 4.625H31.625V5.49999H32.5V4.625Z" fill="#F5F38E"/>
<path d="M30.75 6.37499H28.125V7.24998H27.25V14.2499H28.125V13.3749H29.875V12.5H29V10.75H28.125V8.99997H29V7.24998H31.625V6.37499H32.5V5.49999H31.625V4.625H30.75V6.37499Z" fill="#E2B436"/>
<path d="M30.75 4.625H25.5V5.49999H30.75V4.625Z" fill="#CF8934"/>
<path d="M23.75 4.62499V6.37498H24.625V7.24998H25.5V4.62499H29V3.75H24.625V4.62499H23.75Z" fill="#E2B436"/>
<path d="M33.375 3.75H32.5V4.62499H33.375V3.75Z" fill="#F7FEFF"/>
<path d="M32.5 3.75H31.625V4.62499H32.5V3.75Z" fill="#231E2B"/>
<path d="M31.625 3.75H29V4.62499H31.625V3.75Z" fill="#F5F38E"/>
<path d="M24.625 3.75H23.75V4.62499H24.625V3.75Z" fill="#231E2B"/>
<path d="M23.75 3.75H22.875V4.62499H23.75V3.75Z" fill="#F7FEFF"/>
<path d="M32.5 2.875H31.625V3.74999H32.5V2.875Z" fill="#F7FEFF"/>
<path d="M31.625 2.875H24.625V3.74999H31.625V2.875Z" fill="#231E2B"/>
<path d="M24.625 2.875H23.75V3.74999H24.625V2.875Z" fill="#F7FEFF"/>
<path d="M31.625 2H24.625V2.87499H31.625V2Z" fill="#F7FEFF"/>
</svg>
