<svg width="30" height="34" viewBox="0 0 30 34" fill="none" xmlns="http://www.w3.org/2000/svg">
<path d="M19.2853 31.875H10.7139V34H19.2853V31.875Z" fill="#F7FEFF"/>
<path d="M21.429 29.75H19.2861V31.875H21.429V29.75Z" fill="#F7FEFF"/>
<path d="M19.2853 29.75H10.7139V31.875H19.2853V29.75Z" fill="#231E2B"/>
<path d="M10.7141 29.75H8.57129V31.875H10.7141V29.75Z" fill="#F7FEFF"/>
<path d="M27.8573 27.625H21.4287V29.75H27.8573V27.625Z" fill="#F7FEFF"/>
<path d="M21.429 27.625H19.2861V29.75H21.429V27.625Z" fill="#231E2B"/>
<path d="M19.2853 27.625H10.7139V29.75H19.2853V27.625Z" fill="#CF8934"/>
<path d="M10.7141 27.625H8.57129V29.75H10.7141V27.625Z" fill="#231E2B"/>
<path d="M8.57115 27.625H2.14258V29.75H8.57115V27.625Z" fill="#F7FEFF"/>
<path d="M30.0003 23.375H27.8574V27.625H30.0003V23.375Z" fill="#F7FEFF"/>
<path d="M21.429 25.5H19.2861V27.625H21.429V25.5Z" fill="#CF8934"/>
<path d="M19.2856 25.5H8.57129V27.625H19.2856V25.5Z" fill="#C2751D"/>
<path d="M8.57115 27.625V25.5H4.28544V23.375H2.14258V27.625H8.57115Z" fill="#231E2B"/>
<path d="M25.7144 25.5H21.4287V27.625H27.8573V23.375H25.7144V25.5Z" fill="#231E2B"/>
<path d="M25.7141 23.375H23.5713V25.5H25.7141V23.375Z" fill="#F5F38E"/>
<path d="M23.5716 23.375H6.42871V25.5H23.5716V23.375Z" fill="#E2B436"/>
<path d="M6.42899 23.375H4.28613V25.5H6.42899V23.375Z" fill="#F5F38E"/>
<path d="M2.14286 23.375H0V27.625H2.14286V23.375Z" fill="#F7FEFF"/>
<path d="M23.5716 21.25H6.42871V23.375H23.5716V21.25Z" fill="#CF8934"/>
<path d="M4.28544 10.625H2.14258V23.375H4.28544V10.625Z" fill="#F7FEFF"/>
<path d="M8.57157 10.625H6.42871V21.25H8.57157V10.625Z" fill="#F5F38E"/>
<path d="M27.8567 10.625H25.7139V23.375H27.8567V10.625Z" fill="#F7FEFF"/>
<path d="M23.5716 10.625H21.4287V21.25H23.5716V10.625Z" fill="#F5F38E"/>
<path d="M6.42899 10.625H4.28613V23.375H6.42899V10.625Z" fill="#231E2B"/>
<path d="M25.7141 10.625H23.5713V23.375H25.7141V10.625Z" fill="#231E2B"/>
<path d="M21.4284 10.625H8.57129V21.25H21.4284V10.625Z" fill="#E2B436"/>
<path d="M25.7141 8.5H23.5713V10.625H25.7141V8.5Z" fill="#F7FEFF"/>
<path d="M23.5716 8.5H21.4287V10.625H23.5716V8.5Z" fill="#231E2B"/>
<path d="M21.4284 8.5H8.57129V10.625H21.4284V8.5Z" fill="#F5F38E"/>
<path d="M8.57157 8.5H6.42871V10.625H8.57157V8.5Z" fill="#231E2B"/>
<path d="M6.42899 8.5H4.28613V10.625H6.42899V8.5Z" fill="#F7FEFF"/>
<path d="M23.5716 6.375H21.4287V8.5H23.5716V6.375Z" fill="#F7FEFF"/>
<path d="M17.1431 6.375H12.8574V8.5H17.1431V6.375Z" fill="#E2B436"/>
<path d="M12.857 8.5V4.25H10.7141V6.375H8.57129V8.5H12.857Z" fill="#231E2B"/>
<path d="M8.57157 6.375H6.42871V8.5H8.57157V6.375Z" fill="#F7FEFF"/>
<path d="M21.429 4.25H19.2861V6.375H21.429V4.25Z" fill="#F7FEFF"/>
<path d="M17.1426 8.5H21.4283V6.375H19.2854V4.25H17.1426V8.5Z" fill="#231E2B"/>
<path d="M17.1431 4.25H12.8574V6.375H17.1431V4.25Z" fill="#F5F38E"/>
<path d="M10.7141 4.25H8.57129V6.375H10.7141V4.25Z" fill="#F7FEFF"/>
<path d="M19.2854 2.125H17.1426V4.25H19.2854V2.125Z" fill="#F7FEFF"/>
<path d="M17.1431 2.125H12.8574V4.25H17.1431V2.125Z" fill="#231E2B"/>
<path d="M12.8567 2.125H10.7139V4.25H12.8567V2.125Z" fill="#F7FEFF"/>
<path d="M17.1431 0H12.8574V2.125H17.1431V0Z" fill="#F7FEFF"/>
</svg>
