<svg width="30" height="30" viewBox="0 0 30 30" fill="none" xmlns="http://www.w3.org/2000/svg">
<path d="M22.9415 25.9995H19.4121V27.9995H22.9415V25.9995Z" fill="#F7FEFF"/>
<path d="M19.4112 28H17.6465V30H19.4112V28Z" fill="#F7FEFF"/>
<path d="M28.3327 20H26.666V22H28.3327V20Z" fill="#F7FEFF"/>
<path d="M3.52935 20H1.76465V22H3.52935V20Z" fill="#F7FEFF"/>
<path d="M1.76471 6H0V20H1.76471V6Z" fill="#F7FEFF"/>
<path d="M30.0001 6H28.2354V20H30.0001V6Z" fill="#F7FEFF"/>
<path d="M28.2352 4H1.76465V22H28.2352V4Z" fill="#F7FEFF"/>
<path d="M24.7057 2H5.29395V4H24.7057V2Z" fill="#F7FEFF"/>
<path d="M26.4704 22H5.29395V24H26.4704V22Z" fill="#F7FEFF"/>
<path d="M24.7053 23.9995H17.6465V25.9995H24.7053V23.9995Z" fill="#F7FEFF"/>
<path d="M26.4708 2H24.7061V4H26.4708V2Z" fill="#F7FEFF"/>
<path d="M28.2354 4H26.4707V6H28.2354V4Z" fill="#F7FEFF"/>
<path d="M5.294 2H3.5293V4H5.294V2Z" fill="#F7FEFF"/>
<path d="M24.7057 0H5.29395V2H24.7057V0Z" fill="#F7FEFF"/>
<path d="M10.4171 9.99951H6.8877V13.9995H10.4171V9.99951Z" fill="#231E2B"/>
<path d="M16.6788 9.99951H13.1494V13.9995H16.6788V9.99951Z" fill="#231E2B"/>
<path d="M22.9415 9.99951H19.4121V13.9995H22.9415V9.99951Z" fill="#231E2B"/>
</svg>
