<svg width="24" height="13" viewBox="0 0 24 13" fill="none" xmlns="http://www.w3.org/2000/svg">
<path d="M2.57143 7.3125H3.42857V8.125H4.28571V8.9375H5.14286V9.75H6V10.5625H6.85714V11.375H7.71429V12.1875H6.85714V13H6V12.1875H5.14286V11.375H4.28571V10.5625H3.42857V9.75H2.57143V8.9375H1.71429V8.125H0.857143V7.3125H0V5.6875H0.857143V4.875H1.71429V4.0625H2.57143V3.25H3.42857V2.4375H4.28571V1.625H5.14286V0.8125H6V0H6.85714V0.8125H7.71429V1.625H6.85714V2.4375H6V3.25H5.14286V4.0625H4.28571V4.875H3.42857V5.6875H2.57143V7.3125Z" fill="white"/>
<path d="M24.0004 5.6875V7.3125H23.1433V8.125H22.2861V8.9375H21.429V9.75H20.5718V10.5625H19.7147V11.375H18.8576V12.1875H18.0004V13H17.1433V12.1875H16.2861V11.375H17.1433V10.5625H18.0004V9.75H18.8576V8.9375H19.7147V8.125H20.5718V7.3125H21.429V5.6875H20.5718V4.875H19.7147V4.0625H18.8576V3.25H18.0004V2.4375H17.1433V1.625H16.2861V0.8125H17.1433V0H18.0004V0.8125H18.8576V1.625H19.7147V2.4375H20.5718V3.25H21.429V4.0625H22.2861V4.875H23.1433V5.6875H24.0004Z" fill="white"/>
<path d="M12.5246 0.812939L9.42871 11.8105L11.085 12.2295L14.1809 1.2319L12.5246 0.812939Z" fill="white"/>
</svg>
