<svg width="33" height="28" viewBox="0 0 33 28" fill="none" xmlns="http://www.w3.org/2000/svg">
<path d="M16.5 25.8462H12.375V28H16.5V25.8462Z" fill="#F7FEFF"/>
<path d="M18.5625 23.6924H16.5V25.8462H18.5625V23.6924Z" fill="#F7FEFF"/>
<path d="M16.5 23.6924H12.375V25.8462H16.5V23.6924Z" fill="#231E2B"/>
<path d="M12.375 23.6924H10.3125V25.8462H12.375V23.6924Z" fill="#F7FEFF"/>
<path d="M20.625 21.5386H18.5625V23.6924H20.625V21.5386Z" fill="#F7FEFF"/>
<path d="M18.5625 21.5386H16.5V23.6924H18.5625V21.5386Z" fill="#231E2B"/>
<path d="M16.5 21.5386H12.375V23.6924H16.5V21.5386Z" fill="#356E69"/>
<path d="M12.375 21.5386H10.3125V23.6924H12.375V21.5386Z" fill="#231E2B"/>
<path d="M10.3125 21.5386H8.25V23.6924H10.3125V21.5386Z" fill="#F7FEFF"/>
<path d="M22.6875 19.3848H20.625V21.5386H22.6875V19.3848Z" fill="#F7FEFF"/>
<path d="M20.625 19.3848H18.5625V21.5386H20.625V19.3848Z" fill="#231E2B"/>
<path d="M18.5625 19.3848H16.5V21.5386H18.5625V19.3848Z" fill="#356E69"/>
<path d="M12.375 19.3848H10.3125V21.5386H12.375V19.3848Z" fill="#356E69"/>
<path d="M10.3125 19.3848H8.25V21.5386H10.3125V19.3848Z" fill="#231E2B"/>
<path d="M8.25 19.3848H6.1875V21.5386H8.25V19.3848Z" fill="#F7FEFF"/>
<path d="M24.75 17.231H22.6875V19.3848H24.75V17.231Z" fill="#F7FEFF"/>
<path d="M22.6875 17.231H20.625V19.3848H22.6875V17.231Z" fill="#231E2B"/>
<path d="M20.625 17.231H18.5625V19.3848H20.625V17.231Z" fill="#356E69"/>
<path d="M10.3125 17.231H8.25V19.3848H10.3125V17.231Z" fill="#356E69"/>
<path d="M8.25 17.231H6.1875V19.3848H8.25V17.231Z" fill="#231E2B"/>
<path d="M6.1875 17.231H4.125V19.3848H6.1875V17.231Z" fill="#F7FEFF"/>
<path d="M26.8125 15.0771H24.75V17.231H26.8125V15.0771Z" fill="#F7FEFF"/>
<path d="M24.75 15.0771H22.6875V17.231H24.75V15.0771Z" fill="#231E2B"/>
<path d="M22.6875 15.0771H20.625V17.231H22.6875V15.0771Z" fill="#356E69"/>
<path d="M8.25 15.0771H6.1875V17.231H8.25V15.0771Z" fill="#356E69"/>
<path d="M6.1875 15.0771H4.125V17.231H6.1875V15.0771Z" fill="#231E2B"/>
<path d="M4.125 15.0771H2.0625V17.231H4.125V15.0771Z" fill="#F7FEFF"/>
<path d="M28.875 12.9229H26.8125V15.0767H28.875V12.9229Z" fill="#F7FEFF"/>
<path d="M26.8125 12.9229H24.75V15.0767H26.8125V12.9229Z" fill="#231E2B"/>
<path d="M24.75 12.9229H22.6875V15.0767H24.75V12.9229Z" fill="#356E69"/>
<path d="M16.5 12.9229H12.375V15.0767H16.5V12.9229Z" fill="#ACC756"/>
<path d="M6.1875 12.9229H4.125V15.0767H6.1875V12.9229Z" fill="#356E69"/>
<path d="M4.125 10.769H2.0625V15.0767H4.125V10.769Z" fill="#231E2B"/>
<path d="M30.9375 10.769H28.875V12.9229H30.9375V10.769Z" fill="#F7FEFF"/>
<path d="M28.875 10.769H26.8125V12.9229H28.875V10.769Z" fill="#231E2B"/>
<path d="M26.8125 10.769H24.75V12.9229H26.8125V10.769Z" fill="#356E69"/>
<path d="M18.5625 10.769H16.5V12.9229H18.5625V10.769Z" fill="#ACC756"/>
<path d="M16.5 10.769H12.375V12.9229H16.5V10.769Z" fill="#231E2B"/>
<path d="M12.375 10.769H10.3125V12.9229H12.375V10.769Z" fill="#ACC756"/>
<path d="M2.0625 10.769H0V15.0767H2.0625V10.769Z" fill="#F7FEFF"/>
<path d="M28.875 8.61523H26.8125V10.7691H28.875V8.61523Z" fill="#356E69"/>
<path d="M20.625 8.61523H18.5625V10.7691H20.625V8.61523Z" fill="#ACC756"/>
<path d="M18.5625 8.61523H16.5V10.7691H18.5625V8.61523Z" fill="#231E2B"/>
<path d="M16.5 8.61523H12.375V10.7691H16.5V8.61523Z" fill="#F7FEFF"/>
<path d="M12.375 8.61523H10.3125V10.7691H12.375V8.61523Z" fill="#231E2B"/>
<path d="M10.3125 8.61523H6.1875V10.7691H10.3125V8.61523Z" fill="#ACC756"/>
<path d="M6.1875 8.61523H4.125V10.7691H6.1875V8.61523Z" fill="#231E2B"/>
<path d="M4.125 8.61523H2.0625V10.7691H4.125V8.61523Z" fill="#F7FEFF"/>
<path d="M33 6.46143H30.9375V10.7691H33V6.46143Z" fill="#F7FEFF"/>
<path d="M30.9375 6.46143H28.875V10.7691H30.9375V6.46143Z" fill="#231E2B"/>
<path d="M28.875 6.46143H26.8125V8.61527H28.875V6.46143Z" fill="#ACC756"/>
<path d="M26.8125 6.46143H22.6875V8.61527H20.625V10.7691H18.5625V12.923H16.5V15.0768H12.375V12.923H10.3125V10.7691H4.125V12.923H6.1875V15.0768H8.25V17.2307H10.3125V19.3845H12.375V21.5383H16.5V19.3845H18.5625V17.2307H20.625V15.0768H22.6875V12.923H24.75V10.7691H26.8125V6.46143Z" fill="#4FAB59"/>
<path d="M22.6875 6.46143H20.625V8.61527H22.6875V6.46143Z" fill="#ACC756"/>
<path d="M20.625 6.46143H18.5625V8.61527H20.625V6.46143Z" fill="#231E2B"/>
<path d="M18.5625 6.46143H16.5V8.61527H18.5625V6.46143Z" fill="#F7FEFF"/>
<path d="M12.375 6.46143H10.3125V8.61527H12.375V6.46143Z" fill="#F7FEFF"/>
<path d="M10.3125 6.46143H6.1875V8.61527H10.3125V6.46143Z" fill="#231E2B"/>
<path d="M6.1875 6.46143H4.125V8.61527H6.1875V6.46143Z" fill="#F7FEFF"/>
<path d="M30.9375 4.30762H28.875V6.46146H30.9375V4.30762Z" fill="#F7FEFF"/>
<path d="M28.875 4.30762H26.8125V6.46146H28.875V4.30762Z" fill="#231E2B"/>
<path d="M26.8125 4.30762H22.6875V6.46146H26.8125V4.30762Z" fill="#ACC756"/>
<path d="M22.6875 4.30762H20.625V6.46146H22.6875V4.30762Z" fill="#231E2B"/>
<path d="M20.625 4.30762H18.5625V6.46146H20.625V4.30762Z" fill="#F7FEFF"/>
<path d="M10.3125 4.30762H6.1875V6.46146H10.3125V4.30762Z" fill="#F7FEFF"/>
<path d="M28.875 2.15381H26.8125V4.30765H28.875V2.15381Z" fill="#F7FEFF"/>
<path d="M26.8125 2.15381H22.6875V4.30765H26.8125V2.15381Z" fill="#231E2B"/>
<path d="M22.6875 2.15381H20.625V4.30765H22.6875V2.15381Z" fill="#F7FEFF"/>
<path d="M26.8125 0H22.6875V2.15385H26.8125V0Z" fill="#F7FEFF"/>
</svg>
