<svg width="25" height="25" viewBox="0 0 25 25" fill="none" xmlns="http://www.w3.org/2000/svg">
<path d="M1.1875 7.14062H23.8125V22.6172H25V2.38281H23.8125V5.95312H1.1875V2.38281H0V22.6172H1.1875V7.14062Z" fill="#FEFEFE"/>
<path d="M23.8125 22.6172H1.1875V23.8125H23.8125V22.6172Z" fill="#FEFEFE"/>
<path d="M3.57031 9.52344V20.2422H21.4297V9.52344H3.57031ZM10.7109 15.4766H9.52344V16.6641H8.33594V17.8594H7.14063V16.6641H8.33594V15.4766H9.52344V14.2891H8.33594V13.0938H7.14063V11.9063H8.33594V13.0938H9.52344V14.2891H10.7109V15.4766ZM17.8594 15.4766H13.0938V14.2891H17.8594V15.4766Z" fill="#FEFEFE"/>
<path d="M8.33594 3.57031H7.14062V4.76562H8.33594V3.57031Z" fill="#FEFEFE"/>
<path d="M5.95312 3.57031H4.76562V4.76562H5.95312V3.57031Z" fill="#FEFEFE"/>
<path d="M3.57031 3.57031H2.38281V4.76562H3.57031V3.57031Z" fill="#FEFEFE"/>
<path d="M23.8125 1.1875H1.1875V2.38281H23.8125V1.1875Z" fill="#FEFEFE"/>
</svg>
