<svg width="20" height="23" viewBox="0 0 20 23" fill="none" xmlns="http://www.w3.org/2000/svg">
<path d="M18.5716 21.5625H1.42871V23H18.5716V21.5625Z" fill="#F7FEFF"/>
<path d="M19.9999 18.6875H18.5713V21.5625H19.9999V18.6875Z" fill="#F7FEFF"/>
<path d="M17.143 20.125H2.85728V18.6875H1.42871V21.5625H18.5716V18.6875H17.143V20.125Z" fill="#231E2B"/>
<path d="M17.1431 18.6875H2.85742V20.125H17.1431V18.6875Z" fill="#A6644B"/>
<path d="M1.42857 18.6875H0V21.5625H1.42857V18.6875Z" fill="#F7FEFF"/>
<path d="M18.5711 15.8125H17.1426V18.6875H18.5711V15.8125Z" fill="#F7FEFF"/>
<path d="M2.85728 15.8125H1.42871V18.6875H2.85728V15.8125Z" fill="#F7FEFF"/>
<path d="M15.7146 17.25H4.28599V15.8125H2.85742V18.6875H17.1431V15.8125H15.7146V17.25Z" fill="#231E2B"/>
<path d="M15.7137 15.8125H14.2852V17.25H15.7137V15.8125Z" fill="#F7FEFF"/>
<path d="M14.286 15.8125H12.8574V17.25H14.286V15.8125Z" fill="#E8BE9B"/>
<path d="M12.8569 15.8125H7.14258V17.25H12.8569V15.8125Z" fill="#C7936B"/>
<path d="M7.14342 15.8125H5.71484V17.25H7.14342V15.8125Z" fill="#E8BE9B"/>
<path d="M5.71373 15.8125H4.28516V17.25H5.71373V15.8125Z" fill="#F7FEFF"/>
<path d="M17.1434 14.375H15.7148V15.8125H17.1434V14.375Z" fill="#F7FEFF"/>
<path d="M15.7137 14.375H14.2852V15.8125H15.7137V14.375Z" fill="#231E2B"/>
<path d="M5.71484 14.375V15.8125H8.57199V12.9375H7.14342V14.375H5.71484Z" fill="#F7FEFF"/>
<path d="M5.71373 14.375H4.28516V15.8125H5.71373V14.375Z" fill="#231E2B"/>
<path d="M4.28599 14.375H2.85742V15.8125H4.28599V14.375Z" fill="#F7FEFF"/>
<path d="M15.7137 12.9375H14.2852V14.375H15.7137V12.9375Z" fill="#F7FEFF"/>
<path d="M14.286 12.9375H12.8574V14.375H14.286V12.9375Z" fill="#231E2B"/>
<path d="M7.14342 12.9375H5.71484V14.375H7.14342V12.9375Z" fill="#231E2B"/>
<path d="M5.71373 12.9375H4.28516V14.375H5.71373V12.9375Z" fill="#F7FEFF"/>
<path d="M11.4286 11.5H10V15.8125H14.2857V14.375H12.8571V12.9375H11.4286V11.5Z" fill="#F7FEFF"/>
<path d="M8.57115 10.0625H7.14258V12.9375H8.57115V10.0625Z" fill="#231E2B"/>
<path d="M7.14342 10.0625H5.71484V12.9375H7.14342V10.0625Z" fill="#F7FEFF"/>
<path d="M14.286 10.0625H12.8574V12.9375H14.286V10.0625Z" fill="#F7FEFF"/>
<path d="M12.8573 10.0625H11.4287V12.9375H12.8573V10.0625Z" fill="#231E2B"/>
<path d="M11.4286 10.0625H10V11.5H11.4286V10.0625Z" fill="#C7936B"/>
<path d="M15.7137 8.625H14.2852V10.0625H15.7137V8.625Z" fill="#F7FEFF"/>
<path d="M14.286 8.625H12.8574V10.0625H14.286V8.625Z" fill="#231E2B"/>
<path d="M12.8573 8.625H11.4287V10.0625H12.8573V8.625Z" fill="#C7936B"/>
<path d="M8.57115 15.8125H9.99972V10.0625H11.4283V8.625H12.8569V7.1875H7.14258V8.625H8.57115V15.8125Z" fill="#E8BE9B"/>
<path d="M8.57115 8.625H7.14258V10.0625H8.57115V8.625Z" fill="#C7936B"/>
<path d="M7.14342 8.625H5.71484V10.0625H7.14342V8.625Z" fill="#231E2B"/>
<path d="M5.71373 8.625H4.28516V10.0625H5.71373V8.625Z" fill="#F7FEFF"/>
<path d="M17.1434 7.1875H15.7148V8.625H17.1434V7.1875Z" fill="#F7FEFF"/>
<path d="M15.7137 7.1875H14.2852V8.625H15.7137V7.1875Z" fill="#231E2B"/>
<path d="M14.286 7.1875H12.8574V8.625H14.286V7.1875Z" fill="#C7936B"/>
<path d="M7.14342 7.1875H5.71484V8.625H7.14342V7.1875Z" fill="#C7936B"/>
<path d="M5.71373 7.1875H4.28516V8.625H5.71373V7.1875Z" fill="#231E2B"/>
<path d="M4.28599 7.1875H2.85742V8.625H4.28599V7.1875Z" fill="#F7FEFF"/>
<path d="M15.7137 5.75H4.28516V7.1875H15.7137V5.75Z" fill="#F7FEFF"/>
<path d="M4.28599 5.75H15.7146V7.1875H17.1431V4.3125H2.85742V7.1875H4.28599V5.75Z" fill="#231E2B"/>
<path d="M18.5711 4.3125H17.1426V7.1875H18.5711V4.3125Z" fill="#F7FEFF"/>
<path d="M2.85728 4.3125H1.42871V7.1875H2.85728V4.3125Z" fill="#F7FEFF"/>
<path d="M19.9999 1.4375H18.5713V4.3125H19.9999V1.4375Z" fill="#F7FEFF"/>
<path d="M17.1431 2.875H2.85742V4.3125H17.1431V2.875Z" fill="#A6644B"/>
<path d="M2.85728 2.875H17.143V4.3125H18.5716V1.4375H1.42871V4.3125H2.85728V2.875Z" fill="#231E2B"/>
<path d="M1.42857 1.4375H0V4.3125H1.42857V1.4375Z" fill="#F7FEFF"/>
<path d="M18.5716 0H1.42871V1.4375H18.5716V0Z" fill="#F7FEFF"/>
</svg>
